<svg width="26" height="22" viewBox="0 0 26 22" fill="none" xmlns="http://www.w3.org/2000/svg">
<path d="M7.46139 11.746C8.50139 12.11 9.30739 12.708 9.87939 13.54C10.4514 14.372 10.7374 15.386 10.7374 16.582C10.7374 18.142 10.2434 19.416 9.25539 20.404C8.26739 21.392 7.04539 21.886 5.58939 21.886C4.08139 21.886 2.83339 21.392 1.84539 20.404C0.857391 19.364 0.363391 18.09 0.363391 16.582C0.363391 15.854 0.441391 15.126 0.597391 14.398C0.805391 13.618 1.19539 12.5 1.76739 11.044L5.43339 0.123997H10.3474L7.46139 11.746ZM22.2034 11.746C23.2434 12.11 24.0494 12.708 24.6214 13.54C25.1934 14.372 25.4794 15.386 25.4794 16.582C25.4794 18.142 24.9854 19.416 23.9974 20.404C23.0094 21.392 21.7874 21.886 20.3314 21.886C18.8234 21.886 17.5754 21.392 16.5874 20.404C15.5994 19.364 15.1054 18.09 15.1054 16.582C15.1054 15.854 15.1834 15.126 15.3394 14.398C15.5474 13.618 15.9374 12.5 16.5094 11.044L20.1754 0.123997H25.0894L22.2034 11.746Z" fill="#3A3D48"></path>
</svg>
