<svg width="115" height="28" viewBox="0 0 115 28" fill="none" xmlns="http://www.w3.org/2000/svg">
<path d="M22.008 22.192C21.1227 22.192 20.264 22.0747 19.432 21.84C18.6107 21.5947 17.9493 21.28 17.448 20.896L18.328 18.944C18.808 19.296 19.3787 19.5787 20.04 19.792C20.7013 20.0053 21.3627 20.112 22.024 20.112C22.76 20.112 23.304 20.0053 23.656 19.792C24.008 19.568 24.184 19.2747 24.184 18.912C24.184 18.6453 24.0773 18.4267 23.864 18.256C23.6613 18.0747 23.3947 17.9307 23.064 17.824C22.744 17.7173 22.3067 17.6 21.752 17.472C20.8987 17.2693 20.2 17.0667 19.656 16.864C19.112 16.6613 18.6427 16.336 18.248 15.888C17.864 15.44 17.672 14.8427 17.672 14.096C17.672 13.4453 17.848 12.8587 18.2 12.336C18.552 11.8027 19.08 11.3813 19.784 11.072C20.4987 10.7627 21.368 10.608 22.392 10.608C23.1067 10.608 23.8053 10.6933 24.488 10.864C25.1707 11.0347 25.768 11.28 26.28 11.6L25.48 13.568C24.4453 12.9813 23.4107 12.688 22.376 12.688C21.6507 12.688 21.112 12.8053 20.76 13.04C20.4187 13.2747 20.248 13.584 20.248 13.968C20.248 14.352 20.4453 14.64 20.84 14.832C21.2453 15.0133 21.8587 15.1947 22.68 15.376C23.5333 15.5787 24.232 15.7813 24.776 15.984C25.32 16.1867 25.784 16.5067 26.168 16.944C26.5627 17.3813 26.76 17.9733 26.76 18.72C26.76 19.36 26.5787 19.9467 26.216 20.48C25.864 21.0027 25.3307 21.4187 24.616 21.728C23.9013 22.0373 23.032 22.192 22.008 22.192ZM33.3791 10.8C34.3711 10.8 35.2298 10.9653 35.9551 11.296C36.6911 11.6267 37.2565 12.096 37.6511 12.704C38.0458 13.312 38.2431 14.032 38.2431 14.864C38.2431 15.6853 38.0458 16.4053 37.6511 17.024C37.2565 17.632 36.6911 18.1013 35.9551 18.432C35.2298 18.752 34.3711 18.912 33.3791 18.912H31.1231V22H28.5311V10.8H33.3791ZM33.2351 16.8C34.0138 16.8 34.6058 16.6347 35.0111 16.304C35.4165 15.9627 35.6191 15.4827 35.6191 14.864C35.6191 14.2347 35.4165 13.7547 35.0111 13.424C34.6058 13.0827 34.0138 12.912 33.2351 12.912H31.1231V16.8H33.2351ZM48.7656 19.92V22H40.0936V10.8H48.5576V12.88H42.6696V15.312H47.8696V17.328H42.6696V19.92H48.7656ZM58.204 19.6H53.004L52.012 22H49.356L54.348 10.8H56.908L61.916 22H59.196L58.204 19.6ZM57.388 17.632L55.612 13.344L53.836 17.632H57.388ZM67.158 17.6L65.654 19.168V22H63.078V10.8H65.654V16.032L70.614 10.8H73.494L68.854 15.792L73.766 22H70.742L67.158 17.6ZM83.5938 19.92V22H74.9218V10.8H83.3858V12.88H77.4978V15.312H82.6978V17.328H77.4978V19.92H83.5938ZM92.7921 22L90.6321 18.88H90.5041H88.2481V22H85.6561V10.8H90.5041C91.4961 10.8 92.3548 10.9653 93.0801 11.296C93.8161 11.6267 94.3815 12.096 94.7761 12.704C95.1708 13.312 95.3681 14.032 95.3681 14.864C95.3681 15.696 95.1655 16.416 94.7601 17.024C94.3655 17.6213 93.8001 18.08 93.0641 18.4L95.5761 22H92.7921ZM92.7441 14.864C92.7441 14.2347 92.5415 13.7547 92.1361 13.424C91.7308 13.0827 91.1388 12.912 90.3601 12.912H88.2481V16.816H90.3601C91.1388 16.816 91.7308 16.6453 92.1361 16.304C92.5415 15.9627 92.7441 15.4827 92.7441 14.864Z" fill="#F4F4F4"></path>
<path d="M5.44984 13.8122C5.44984 19.7623 9.08291 22.0046 9.23756 22.0971C9.42714 22.2094 9.56331 22.3903 9.61622 22.6002C9.66914 22.8101 9.63449 23.0319 9.51986 23.2169C9.40524 23.402 9.21999 23.5352 9.00471 23.5874C8.78943 23.6396 8.56168 23.6066 8.37138 23.4955C8.18367 23.3857 3.77344 20.7282 3.77344 13.8122C3.77344 6.89622 8.18367 4.23866 8.37138 4.12891C8.56178 4.01712 8.78997 3.9836 9.00574 4.03573C9.22152 4.08785 9.4072 4.22135 9.52194 4.40686C9.63668 4.59237 9.67108 4.81468 9.61758 5.0249C9.56408 5.23512 9.42705 5.41603 9.23664 5.52781C9.0692 5.6284 5.44984 7.87335 5.44984 13.8122Z" fill="#F4F4F4"></path>
<path d="M2.23573 13.8123C2.23573 21.8578 7.08094 24.8897 7.28719 25.0148C7.54002 25.1666 7.72162 25.4112 7.79219 25.695C7.86276 25.9789 7.81654 26.2788 7.66368 26.529C7.51081 26.7792 7.26375 26.9594 6.97665 27.03C6.68954 27.1006 6.38581 27.0559 6.13201 26.9057C5.88168 26.7573 0 23.1638 0 13.8123C0 4.46084 5.88168 0.867409 6.13201 0.719003C6.38594 0.567846 6.69026 0.522524 6.97803 0.593007C7.26579 0.66349 7.51342 0.844004 7.66644 1.09484C7.81947 1.34567 7.86535 1.64628 7.794 1.93053C7.72264 2.21478 7.5399 2.45939 7.28597 2.61055C7.06266 2.74655 2.23573 5.78208 2.23573 13.8123Z" fill="#F4F4F4"></path>
<path d="M109.191 13.8122C109.191 19.7623 105.558 22.0046 105.403 22.0971C105.213 22.2094 105.077 22.3903 105.024 22.6002C104.971 22.8101 105.006 23.0319 105.121 23.2169C105.235 23.402 105.421 23.5352 105.636 23.5874C105.851 23.6396 106.079 23.6066 106.269 23.4955C106.457 23.3857 110.867 20.7282 110.867 13.8122C110.867 6.89622 106.457 4.23866 106.269 4.12891C106.079 4.01712 105.851 3.9836 105.635 4.03573C105.419 4.08785 105.233 4.22135 105.119 4.40686C105.004 4.59237 104.97 4.81468 105.023 5.0249C105.077 5.23512 105.214 5.41603 105.404 5.52781C105.571 5.6284 109.191 7.87335 109.191 13.8122Z" fill="#F4F4F4"></path>
<path d="M112.405 13.8123C112.405 21.8578 107.56 24.8897 107.353 25.0148C107.101 25.1666 106.919 25.4112 106.848 25.695C106.778 25.9789 106.824 26.2788 106.977 26.529C107.13 26.7792 107.377 26.9594 107.664 27.03C107.951 27.1006 108.255 27.0559 108.509 26.9057C108.759 26.7573 114.641 23.1638 114.641 13.8123C114.641 4.46084 108.759 0.867409 108.509 0.719003C108.255 0.567846 107.95 0.522524 107.663 0.593007C107.375 0.66349 107.127 0.844004 106.974 1.09484C106.821 1.34567 106.775 1.64628 106.847 1.93053C106.918 2.21478 107.101 2.45939 107.355 2.61055C107.578 2.74655 112.405 5.78208 112.405 13.8123Z" fill="#F4F4F4"></path>
</svg>
